Run_50002
nRows=4
nColumns=164

# SIMM Motion File Header:
name Run_50002
datacolumns 164
datarows 4
otherdata 1
range 2.52000000 2.55000000
endheader
time	pelvis_tilt	pelvis_list	pelvis_rotation	pelvis_tx	pelvis_ty	pelvis_tz	hip_flexion_r	hip_adduction_r	hip_rotation_r	knee_angle_r	ankle_angle_r	hip_flexion_l	hip_adduction_l	hip_rotation_l	knee_angle_l	ankle_angle_l	lumbar_extension	lumbar_bending	lumbar_rotation	arm_flex_r	arm_add_r	arm_rot_r	elbow_flex_r	pro_sup_r	arm_flex_l	arm_add_l	arm_rot_l	elbow_flex_l	pro_sup_l	subtalar_angle_r	mtp_angle_r	subtalar_angle_l	mtp_angle_l	wrist_flex_r	wrist_dev_r	wrist_flex_l	wrist_dev_l	LASI_tx	LASI_ty	LASI_tz	RASI_tx	RASI_ty	RASI_tz	LPSI_tx	LPSI_ty	LPSI_tz	RPSI_tx	RPSI_ty	RPSI_tz	RTH1_tx	RTH1_ty	RTH1_tz	RTH2_tx	RTH2_ty	RTH2_tz	RTH3_tx	RTH3_ty	RTH3_tz	LTH1_tx	LTH1_ty	LTH1_tz	LTH2_tx	LTH2_ty	LTH2_tz	LTH3_tx	LTH3_ty	LTH3_tz	RTB1_tx	RTB1_ty	RTB1_tz	RTB2_tx	RTB2_ty	RTB2_tz	RTB3_tx	RTB3_ty	RTB3_tz	LTB1_tx	LTB1_ty	LTB1_tz	LTB2_tx	LTB2_ty	LTB2_tz	LTB3_tx	LTB3_ty	LTB3_tz	RCAL_tx	RCAL_ty	RCAL_tz	RTOE_tx	RTOE_ty	RTOE_tz	RMT5_tx	RMT5_ty	RMT5_tz	LCAL_tx	LCAL_ty	LCAL_tz	LTOE_tx	LTOE_ty	LTOE_tz	LMT5_tx	LMT5_ty	LMT5_tz	LACR_tx	LACR_ty	LACR_tz	RACR_tx	RACR_ty	RACR_tz	CLAV_tx	CLAV_ty	CLAV_tz	C7_tx	C7_ty	C7_tz	RUA1_tx	RUA1_ty	RUA1_tz	RUA2_tx	RUA2_ty	RUA2_tz	RUA3_tx	RUA3_ty	RUA3_tz	RLEL_tx	RLEL_ty	RLEL_tz	RMEL_tx	RMEL_ty	RMEL_tz	LUA1_tx	LUA1_ty	LUA1_tz	LUA2_tx	LUA2_ty	LUA2_tz	LUA3_tx	LUA3_ty	LUA3_tz	LLEL_tx	LLEL_ty	LLEL_tz	LMEL_tx	LMEL_ty	LMEL_tz	RFAsuperior_tx	RFAsuperior_ty	RFAsuperior_tz	RFAradius_tx	RFAradius_ty	RFAradius_tz	RFAulna_tx	RFAulna_ty	RFAulna_tz	LFAsuperior_tx	LFAsuperior_ty	LFAsuperior_tz	LFAradius_tx	LFAradius_ty	LFAradius_tz	LFAulna_tx	LFAulna_ty	LFAulna_tz
      2.52000000	      1.15959530	     -6.82601066	      0.37568965	      0.90134786	      0.95620586	     -0.33772109	      0.35480107	     12.74936001	      2.64044251	    -36.48817298	     24.65785262	     32.88208603	     -1.71472153	      3.77993675	   -110.04729441	    -10.79184681	    -14.75874940	      5.85223439	      6.10743684	    -12.55307624	    -32.90276881	    -13.62424361	     95.74510680	     69.32730651	    -24.02832871	    -21.17953078	     -2.84698867	     77.46208083	    105.94809180	      0.00000000	      0.00000000	      0.00000000	      0.00000000	      0.00000000	      0.00000000	      0.00000000	      0.00000000	      0.90446956	      0.96911078	     -0.47732050	      0.90809852	      0.98457487	     -0.20602639	      0.73540568	      0.99450061	     -0.39427344	      0.73420518	      1.00309406	     -0.29492240	      0.80804155	      0.79759796	     -0.15898040	      0.88581305	      0.69157622	     -0.18243897	      0.80834597	      0.57297402	     -0.21101293	      0.87110894	      0.76849597	     -0.49816194	      1.00243955	      0.68487133	     -0.49037549	      1.01005908	      0.56797099	     -0.47251708	      0.80108616	      0.33572534	     -0.29663710	      0.74759394	      0.29296215	     -0.23796524	      0.69035515	      0.20055810	     -0.29907257	      0.95621099	      0.41686195	     -0.39138857	      0.87073324	      0.43434213	     -0.46604998	      0.80316664	      0.39235252	     -0.40215944	      0.51732264	      0.12797634	     -0.31081897	      0.73445966	      0.06430343	     -0.31066478	      0.67499985	      0.05729444	     -0.22513780	      0.65045406	      0.47635104	     -0.40976725	      0.64752946	      0.24844326	     -0.38052647	      0.62650183	      0.29024599	     -0.47231968	      0.89938779	      1.43657220	     -0.52067088	      0.91511789	      1.45808923	     -0.18438569	      0.95371628	      1.38639865	     -0.32125021	      0.83755904	      1.47390604	     -0.34506994	      0.87460482	      1.39175798	     -0.08693573	      0.80921215	      1.31363373	     -0.09796824	      0.84387916	      1.27903856	     -0.03948563	      0.82110084	      1.18468239	      0.01636868	      0.79338771	      1.15217413	     -0.05165977	      0.82782729	      1.36909502	     -0.59564966	      0.75847094	      1.30605574	     -0.55430571	      0.73352577	      1.26185243	     -0.61818519	      0.70317598	      1.18665275	     -0.65785613	      0.68076278	      1.17564395	     -0.58454693	      0.92527242	      1.15286801	      0.01328000	      1.06486045	      1.10578542	     -0.03744901	      1.03793217	      1.04536539	     -0.01033899	      0.77997129	      1.10228765	     -0.65967443	      0.87461006	      0.97926214	     -0.59548354	      0.82880630	      0.95139825	     -0.64418011
      2.53000000	      0.74862056	     -5.18278607	      1.04849140	      0.90382758	      0.95965258	     -0.33910159	     -4.53029057	     10.79668671	      3.03383334	    -32.52281775	     21.73957583	     36.40842650	      0.82955253	      3.83309049	   -106.43520983	     -9.75587774	    -13.73371860	      4.02941275	      6.66489321	    -12.78372155	    -33.06935930	    -15.11113231	     97.85119435	     69.56620011	    -27.52039197	    -22.01040393	     -4.35090455	     80.21564962	    103.93520801	      0.00000000	      0.00000000	      0.00000000	      0.00000000	      0.00000000	      0.00000000	      0.00000000	      0.00000000	      0.90478623	      0.97486366	     -0.47900474	      0.91069052	      0.98417924	     -0.20754608	      0.73751855	      0.99952710	     -0.39273174	      0.73696813	      1.00627928	     -0.29258691	      0.80159254	      0.80020782	     -0.16048631	      0.87035453	      0.69095840	     -0.18396908	      0.78286583	      0.57633069	     -0.21054388	      0.87860808	      0.77641553	     -0.49970301	      1.01494655	      0.70132985	     -0.49018269	      1.02970120	      0.58590424	     -0.47114224	      0.76068241	      0.33687572	     -0.29493734	      0.70655041	      0.29768357	     -0.23513962	      0.64665364	      0.20718373	     -0.29661944	      0.98892845	      0.42517845	     -0.39040907	      0.90067417	      0.43356878	     -0.46382897	      0.83861030	      0.38218982	     -0.40067234	      0.47273401	      0.14114369	     -0.30702686	      0.68459539	      0.06331941	     -0.31056596	      0.62609779	      0.05756715	     -0.22493574	      0.67516787	      0.44694713	     -0.40878121	      0.70489138	      0.22093691	     -0.37883272	      0.67664313	      0.25857407	     -0.46951120	      0.89363445	      1.44297537	     -0.52163024	      0.91885718	      1.46415856	     -0.18717425	      0.95375314	      1.39190933	     -0.32443658	      0.83655262	      1.47834613	     -0.34475954	      0.88213801	      1.39816523	     -0.08831986	      0.81591342	      1.32063449	     -0.09590975	      0.85333486	      1.28543676	     -0.03953090	      0.83288752	      1.19126883	      0.01743899	      0.80514295	      1.15774954	     -0.04989119	      0.81776003	      1.37989381	     -0.59405348	      0.74827884	      1.31926793	     -0.55050564	      0.71919802	      1.27661956	     -0.61438278	      0.68448878	      1.20360529	     -0.65435665	      0.66565107	      1.19209348	     -0.58016225	      0.93861965	      1.16361385	      0.01137941	      1.07824791	      1.12386706	     -0.04261890	      1.05541431	      1.06258895	     -0.01400711	      0.76053480	      1.11832215	     -0.66077589	      0.85641657	      0.99455888	     -0.60150194	      0.80742423	      0.96661070	     -0.64672175
      2.54000000	      0.05618102	     -3.33388262	      1.42936570	      0.90729032	      0.96339591	     -0.34023723	     -9.23258205	      8.57360320	      3.09750967	    -27.99947739	     17.05364636	     39.57245837	      3.22377894	      3.30300541	   -101.91902195	     -8.49293640	    -12.34614063	      1.87207500	      7.30728562	    -13.25428123	    -33.11598167	    -16.32563926	     99.92817028	     69.59075420	    -31.13169966	    -22.85256570	     -5.83817471	     83.09915790	    102.17060421	      0.00000000	      0.00000000	      0.00000000	      0.00000000	      0.00000000	      0.00000000	      0.00000000	      0.00000000	      0.90632848	      0.98217788	     -0.47998097	      0.91450392	      0.98386783	     -0.20830163	      0.74095085	      1.00518306	     -0.39228135	      0.74126023	      1.01095535	     -0.29138325	      0.79514674	      0.80466302	     -0.16169327	      0.85442760	      0.69226105	     -0.18484239	      0.75693344	      0.58320341	     -0.21055939	      0.88628812	      0.78530115	     -0.50188639	      1.02677279	      0.71767574	     -0.49009321	      1.04672836	      0.60327166	     -0.47043452	      0.72158865	      0.34205249	     -0.29238168	      0.66706504	      0.30498350	     -0.23199855	      0.60576654	      0.21592484	     -0.29468332	      1.01908871	      0.43323466	     -0.39036989	      0.92896888	      0.43347191	     -0.46187972	      0.87441595	      0.37146072	     -0.39876271	      0.43171110	      0.15697975	     -0.30389576	      0.63506564	      0.06126433	     -0.31143756	      0.57826627	      0.05840631	     -0.22510984	      0.70246033	      0.41473831	     -0.40570324	      0.76589578	      0.19518505	     -0.37755277	      0.73056404	      0.22868791	     -0.46676052	      0.88809759	      1.44991926	     -0.52243575	      0.92204755	      1.47084876	     -0.19031246	      0.95383608	      1.39822687	     -0.32775124	      0.83552701	      1.48319992	     -0.34488087	      0.88907498	      1.40554204	     -0.09010609	      0.82264197	      1.32845112	     -0.09476018	      0.86253804	      1.29284444	     -0.03967202	      0.84359618	      1.19913739	      0.01827465	      0.81527406	      1.16470568	     -0.04886938	      0.80892413	      1.39143183	     -0.59209183	      0.73938987	      1.33328567	     -0.54757237	      0.70701856	      1.29164476	     -0.61121864	      0.66801225	      1.22079129	     -0.65033696	      0.65262719	      1.20886583	     -0.57520849	      0.95030941	      1.17556392	      0.00882915	      1.08947105	      1.14220235	     -0.04845142	      1.07055005	      1.08012010	     -0.01889022	      0.74327903	      1.13539543	     -0.66021342	      0.84013738	      1.01092770	     -0.60574735	      0.78874804	      0.98288834	     -0.64793310
      2.55000000	     -0.55762972	     -1.28062551	      1.50301902	      0.91170007	      0.96785563	     -0.34105591	    -13.90799806	      6.04252980	      2.64629514	    -23.31881218	     10.92125234	     41.99688360	      5.35624216	      2.20205636	    -96.53265235	     -6.99474534	    -11.01863300	     -0.60136595	      8.02155438	    -13.76349628	    -33.11255595	    -17.07945172	    101.93233447	     69.45043003	    -34.83558548	    -23.56495777	     -7.42102129	     85.98064067	    100.62520000	      0.00000000	      0.00000000	      0.00000000	      0.00000000	      0.00000000	      0.00000000	      0.00000000	      0.00000000	      0.90930121	      0.99091137	     -0.47968272	      0.91931769	      0.98400168	     -0.20874503	      0.74510121	      1.01136951	     -0.39259350	      0.74666674	      1.01637005	     -0.29144291	      0.78939600	      0.81072180	     -0.16239313	      0.83925976	      0.69556432	     -0.18510903	      0.73269644	      0.59399619	     -0.21025821	      0.89539280	      0.79581246	     -0.50509619	      1.03815751	      0.73392391	     -0.49065920	      1.06141942	      0.61963267	     -0.47052098	      0.68504133	      0.35145268	     -0.28894917	      0.62968741	      0.31592882	     -0.22820984	      0.56883062	      0.22689491	     -0.29261570	      1.04699755	      0.44039263	     -0.39091987	      0.95552877	      0.43212514	     -0.45979303	      0.91089363	      0.36051165	     -0.39672976	      0.39499126	      0.17520376	     -0.30159664	      0.58640895	      0.05962112	     -0.31200136	      0.53141598	      0.06042738	     -0.22515976	      0.73318242	      0.38046045	     -0.40078864	      0.83017737	      0.17282497	     -0.37639768	      0.78789853	      0.20141400	     -0.46411538	      0.88337740	      1.45688701	     -0.52302982	      0.92454093	      1.47774837	     -0.19357432	      0.95395825	      1.40481910	     -0.33085170	      0.83462926	      1.48811587	     -0.34535878	      0.89517009	      1.41331609	     -0.09230042	      0.82904448	      1.33671974	     -0.09375168	      0.87135046	      1.30086216	     -0.03983523	      0.85326740	      1.20776157	      0.01898447	      0.82357277	      1.17258731	     -0.04798643	      0.80183209	      1.40322026	     -0.59017565	      0.73217308	      1.34762961	     -0.54525895	      0.69680612	      1.30666127	     -0.60841786	      0.65373888	      1.23770037	     -0.64586638	      0.64142001	      1.22570302	     -0.56977029	      0.96028304	      1.18831881	      0.00616158	      1.09858296	      1.16019929	     -0.05476363	      1.08342608	      1.09732477	     -0.02474283	      0.72779805	      1.15245111	     -0.65823998	      0.82589464	      1.02730202	     -0.60833963	      0.77266572	      0.99932836	     -0.64786637
